<svg xmlns="http://www.w3.org/2000/svg" width="2048" height="2048" viewBox="0 0 2048 2048">
<path d="M 1614,1394 1613,1395 1613,1396 1613,1395 Z" fill="white"/><path d="M 1322,1307 1322,1308 1321,1309 1321,1310 1322,1311 1321,1310 1321,1309 1322,1308 Z" fill="white"/><path d="M 1289,1251 1289,1252 1288,1253 1289,1252 Z" fill="white"/><path d="M 814,1088 815,1089 815,1090 815,1089 Z" fill="white"/><path d="M 1305,989 1304,990 1297,990 1296,991 1293,991 1292,992 1289,992 1288,993 1286,993 1285,994 1283,994 1282,995 1281,995 1280,996 1277,996 1276,997 1275,997 1274,998 1273,998 1272,999 1271,999 1270,1000 1269,1000 1268,1001 1267,1001 1265,1003 1264,1003 1263,1004 1262,1004 1261,1005 1260,1005 1257,1008 1256,1008 1251,1013 1250,1013 1240,1023 1240,1024 1234,1030 1234,1031 1233,1032 1233,1033 1231,1035 1231,1036 1229,1038 1229,1039 1228,1040 1228,1041 1227,1042 1227,1043 1226,1044 1226,1045 1225,1046 1225,1047 1224,1048 1224,1049 1223,1050 1223,1052 1222,1053 1222,1054 1221,1055 1221,1057 1220,1058 1220,1061 1219,1062 1219,1064 1218,1065 1218,1069 1217,1070 1217,1075 1216,1076 1216,1084 1215,1085 1215,1095 1216,1096 1216,1103 1217,1104 1217,1109 1218,1110 1218,1114 1219,1115 1219,1117 1220,1118 1220,1121 1221,1122 1221,1124 1222,1125 1222,1126 1223,1127 1223,1129 1224,1130 1224,1131 1225,1132 1225,1133 1226,1134 1226,1135 1227,1136 1227,1137 1228,1138 1228,1139 1230,1141 1230,1142 1231,1143 1231,1144 1232,1145 1232,1146 1233,1147 1233,1148 1235,1150 1235,1151 1236,1152 1236,1153 1237,1154 1237,1155 1239,1157 1239,1158 1240,1159 1240,1160 1242,1162 1242,1163 1243,1164 1243,1165 1245,1167 1245,1169 1247,1171 1247,1172 1248,1173 1248,1174 1250,1176 1250,1177 1251,1178 1251,1179 1253,1181 1253,1182 1254,1183 1254,1184 1255,1185 1255,1186 1257,1188 1257,1189 1258,1190 1258,1191 1259,1192 1259,1193 1260,1194 1260,1195 1262,1197 1262,1198 1264,1200 1264,1201 1265,1202 1265,1203 1266,1204 1266,1205 1268,1207 1268,1209 1270,1211 1270,1212 1272,1214 1272,1215 1273,1216 1273,1217 1274,1218 1274,1219 1276,1221 1276,1222 1277,1223 1277,1224 1279,1226 1279,1228 1281,1230 1281,1231 1282,1232 1282,1233 1284,1235 1284,1236 1285,1237 1285,1238 1287,1240 1287,1241 1288,1242 1288,1243 1290,1245 1290,1246 1291,1247 1291,1248 1292,1249 1292,1250 1294,1252 1294,1253 1295,1254 1295,1255 1296,1256 1296,1257 1297,1258 1297,1259 1299,1261 1299,1262 1301,1264 1301,1265 1302,1266 1302,1267 1303,1268 1303,1269 1305,1271 1305,1273 1307,1275 1307,1276 1308,1277 1308,1278 1310,1280 1310,1282 1313,1285 1313,1286 1314,1287 1314,1289 1315,1289 1316,1290 1316,1291 1317,1292 1317,1293 1318,1294 1318,1296 1321,1299 1321,1300 1322,1301 1322,1302 1324,1304 1324,1305 1325,1306 1325,1307 1327,1309 1327,1311 1329,1313 1329,1314 1331,1316 1331,1317 1332,1318 1332,1319 1333,1320 1333,1321 1334,1322 1334,1323 1336,1325 1336,1326 1338,1328 1338,1329 1339,1330 1339,1331 1340,1332 1340,1333 1342,1335 1342,1337 1344,1339 1344,1340 1345,1341 1345,1342 1347,1344 1347,1345 1348,1346 1348,1347 1350,1349 1350,1350 1351,1351 1351,1352 1353,1354 1353,1355 1354,1356 1354,1357 1355,1358 1355,1359 1356,1360 1356,1361 1357,1362 1357,1363 1359,1365 1359,1366 1360,1367 1360,1368 1362,1370 1362,1371 1363,1372 1363,1373 1365,1375 1365,1376 1366,1377 1366,1378 1367,1379 1367,1380 1368,1381 1368,1382 1370,1384 1370,1385 1371,1386 1371,1387 1373,1389 1373,1390 1375,1392 1375,1394 1377,1396 1377,1397 1378,1398 1378,1399 1379,1400 1379,1401 1381,1403 1381,1404 1382,1405 1382,1406 1384,1408 1384,1409 1385,1410 1385,1411 1386,1412 1386,1413 1388,1415 1388,1416 1390,1418 1390,1420 1392,1422 1392,1423 1393,1424 1393,1425 1395,1427 1395,1428 1396,1429 1396,1430 1397,1431 1397,1432 1399,1434 1399,1435 1400,1436 1400,1437 1402,1439 1402,1440 1403,1441 1403,1442 1404,1443 1404,1444 1405,1445 1405,1446 1406,1447 1406,1448 1408,1450 1408,1451 1410,1453 1410,1454 1412,1456 1412,1457 1413,1458 1413,1459 1414,1460 1414,1461 1415,1462 1415,1463 1416,1464 1416,1465 1417,1466 1417,1467 1419,1469 1419,1470 1421,1472 1421,1473 1422,1474 1422,1476 1425,1479 1425,1481 1428,1484 1428,1485 1429,1486 1429,1487 1430,1488 1430,1489 1431,1490 1431,1491 1433,1493 1433,1494 1434,1495 1434,1496 1436,1498 1436,1499 1437,1500 1437,1501 1439,1503 1439,1505 1441,1507 1441,1508 1442,1509 1442,1510 1444,1512 1444,1513 1445,1514 1445,1515 1447,1517 1447,1518 1448,1519 1448,1520 1450,1522 1450,1523 1451,1524 1451,1525 1452,1526 1452,1527 1453,1528 1453,1529 1454,1530 1454,1531 1456,1533 1456,1534 1458,1536 1458,1537 1459,1538 1459,1539 1460,1540 1460,1541 1462,1543 1462,1545 1464,1547 1464,1548 1465,1549 1465,1550 1467,1552 1467,1553 1470,1556 1470,1557 1474,1561 1474,1562 1475,1562 1476,1563 1476,1564 1478,1566 1478,1567 1479,1567 1485,1573 1486,1573 1489,1576 1490,1576 1493,1579 1494,1579 1496,1581 1495,1582 1496,1581 1497,1581 1498,1582 1499,1582 1501,1584 1502,1584 1503,1585 1504,1585 1505,1586 1504,1587 1505,1586 1506,1586 1507,1587 1508,1587 1509,1588 1511,1588 1512,1589 1513,1589 1514,1590 1516,1590 1517,1591 1518,1591 1519,1592 1521,1592 1522,1593 1525,1593 1526,1594 1530,1594 1531,1595 1535,1595 1536,1596 1545,1596 1546,1597 1555,1597 1556,1596 1565,1596 1566,1595 1571,1595 1572,1594 1575,1594 1576,1593 1579,1593 1580,1592 1582,1592 1583,1591 1585,1591 1586,1590 1588,1590 1589,1589 1590,1589 1591,1588 1593,1588 1594,1587 1595,1587 1597,1585 1598,1585 1599,1584 1601,1584 1603,1582 1604,1582 1606,1580 1607,1580 1609,1578 1610,1578 1613,1575 1614,1575 1620,1569 1621,1569 1622,1568 1622,1567 1624,1565 1625,1565 1626,1564 1626,1563 1629,1560 1629,1559 1633,1555 1633,1554 1634,1553 1634,1552 1636,1550 1636,1549 1638,1547 1638,1546 1639,1545 1639,1544 1641,1542 1641,1540 1642,1539 1642,1538 1643,1537 1643,1536 1644,1535 1644,1533 1645,1532 1645,1531 1646,1530 1646,1528 1647,1527 1647,1525 1648,1524 1648,1521 1649,1520 1649,1516 1650,1515 1650,1511 1651,1510 1651,1481 1650,1480 1650,1477 1649,1476 1649,1472 1648,1471 1648,1468 1647,1467 1647,1465 1646,1464 1646,1462 1645,1461 1645,1459 1644,1458 1644,1457 1643,1456 1643,1454 1642,1453 1642,1452 1641,1451 1641,1450 1640,1449 1640,1448 1639,1447 1639,1446 1638,1445 1638,1444 1636,1442 1636,1441 1634,1439 1634,1438 1633,1437 1633,1436 1631,1434 1631,1433 1630,1432 1630,1431 1629,1430 1629,1429 1627,1427 1627,1426 1626,1425 1626,1424 1625,1423 1625,1422 1623,1420 1623,1419 1622,1418 1622,1417 1620,1415 1620,1414 1619,1413 1619,1412 1618,1411 1618,1410 1616,1408 1616,1407 1615,1406 1615,1405 1614,1404 1614,1403 1612,1401 1612,1400 1611,1399 1611,1398 1610,1397 1610,1396 1608,1394 1608,1393 1606,1391 1606,1390 1605,1389 1605,1388 1604,1387 1604,1386 1603,1385 1603,1384 1602,1383 1602,1382 1600,1380 1600,1379 1599,1378 1599,1377 1597,1375 1597,1374 1596,1373 1596,1372 1594,1370 1594,1369 1593,1368 1593,1367 1592,1366 1592,1365 1591,1364 1591,1363 1590,1362 1590,1361 1588,1359 1588,1358 1587,1357 1587,1356 1585,1354 1585,1353 1584,1352 1584,1351 1582,1349 1582,1348 1581,1347 1581,1346 1580,1345 1580,1344 1579,1343 1579,1342 1577,1340 1577,1339 1576,1338 1576,1337 1577,1336 1576,1337 1574,1335 1574,1334 1573,1333 1573,1332 1571,1330 1571,1329 1570,1328 1570,1327 1569,1326 1569,1325 1567,1323 1567,1322 1566,1321 1566,1320 1564,1318 1564,1317 1565,1316 1564,1317 1562,1315 1562,1313 1560,1311 1560,1310 1559,1309 1559,1308 1558,1307 1558,1306 1556,1304 1556,1303 1555,1302 1555,1301 1553,1299 1553,1297 1554,1296 1553,1297 1551,1295 1551,1294 1550,1293 1550,1292 1548,1290 1548,1289 1546,1287 1546,1286 1545,1285 1545,1284 1544,1283 1544,1282 1542,1280 1542,1278 1540,1276 1540,1275 1539,1274 1539,1273 1540,1272 1539,1273 1537,1271 1537,1269 1535,1267 1535,1266 1533,1264 1533,1263 1532,1262 1532,1261 1530,1259 1530,1258 1529,1257 1529,1255 1526,1252 1526,1251 1525,1250 1525,1249 1523,1247 1523,1246 1522,1245 1522,1244 1520,1242 1520,1241 1519,1240 1519,1239 1518,1238 1518,1237 1517,1236 1517,1235 1515,1233 1515,1232 1514,1231 1514,1230 1513,1229 1513,1228 1511,1226 1511,1225 1509,1223 1509,1221 1507,1219 1507,1218 1505,1216 1505,1214 1503,1212 1503,1211 1502,1210 1502,1209 1500,1207 1500,1206 1499,1205 1499,1204 1497,1202 1497,1201 1496,1200 1496,1199 1495,1198 1495,1197 1494,1196 1494,1195 1492,1193 1492,1192 1491,1191 1491,1190 1490,1189 1490,1188 1488,1186 1488,1185 1487,1184 1487,1183 1485,1181 1485,1180 1484,1179 1484,1178 1483,1177 1483,1176 1484,1175 1483,1176 1482,1175 1482,1174 1480,1172 1480,1171 1479,1170 1479,1169 1477,1167 1477,1166 1476,1165 1476,1164 1474,1162 1474,1161 1473,1160 1473,1159 1472,1158 1472,1157 1470,1155 1470,1153 1468,1151 1468,1150 1467,1149 1467,1148 1465,1146 1465,1145 1463,1143 1463,1142 1462,1141 1462,1140 1461,1139 1461,1138 1459,1136 1459,1134 1457,1132 1457,1131 1456,1130 1456,1129 1454,1127 1454,1126 1452,1124 1452,1123 1451,1122 1451,1121 1450,1120 1450,1119 1448,1117 1448,1116 1447,1115 1447,1114 1445,1112 1445,1111 1444,1110 1444,1109 1443,1108 1443,1107 1442,1106 1442,1105 1440,1103 1440,1102 1439,1101 1439,1100 1437,1098 1437,1097 1436,1096 1436,1095 1435,1094 1435,1093 1433,1091 1433,1090 1432,1089 1432,1088 1431,1087 1431,1086 1430,1085 1430,1084 1428,1082 1428,1081 1426,1079 1426,1078 1425,1077 1425,1076 1424,1075 1424,1074 1423,1073 1423,1072 1422,1071 1422,1070 1420,1068 1420,1067 1419,1066 1419,1065 1417,1063 1417,1061 1414,1058 1414,1057 1413,1056 1413,1055 1411,1053 1411,1052 1410,1051 1410,1050 1408,1048 1408,1047 1407,1046 1407,1045 1406,1044 1406,1043 1405,1042 1405,1041 1403,1039 1403,1038 1402,1037 1402,1036 1400,1034 1400,1033 1398,1031 1398,1030 1395,1027 1395,1026 1385,1016 1385,1015 1384,1015 1379,1010 1378,1010 1376,1008 1375,1008 1373,1006 1372,1006 1370,1004 1369,1004 1367,1002 1366,1002 1365,1001 1364,1001 1363,1000 1362,1000 1361,999 1360,999 1359,998 1358,998 1357,997 1356,997 1355,996 1353,996 1352,995 1350,995 1349,994 1347,994 1346,993 1344,993 1343,992 1340,992 1339,991 1336,991 1335,990 1328,990 1327,989 Z" fill="white"/><path d="M 933,885 933,886 932,887 933,886 Z" fill="white"/><path d="M 941,871 942,872 943,871 942,872 Z" fill="white"/><path d="M 1082,784 1081,785 1081,786 1081,785 Z" fill="white"/><path d="M 1158,738 1157,739 1152,739 1151,740 1148,740 1147,741 1144,741 1143,742 1141,742 1140,743 1137,743 1136,744 1135,744 1134,745 1132,745 1131,746 1130,746 1129,747 1128,747 1127,748 1126,748 1125,749 1124,749 1123,750 1122,750 1121,751 1120,751 1118,753 1117,753 1116,754 1115,754 1114,753 1113,753 1112,752 1113,753 1114,753 1115,754 1112,757 1111,757 1108,760 1107,760 1093,774 1093,775 1090,778 1090,779 1087,782 1087,783 1086,784 1086,785 1084,787 1084,788 1083,789 1083,790 1082,791 1082,792 1081,793 1081,794 1080,795 1080,796 1079,797 1079,799 1078,800 1078,801 1077,802 1077,803 1076,804 1076,807 1075,808 1075,810 1074,811 1074,813 1073,814 1073,818 1072,819 1072,823 1071,824 1071,853 1072,854 1072,858 1073,859 1073,862 1074,863 1074,866 1075,867 1075,869 1076,870 1076,873 1077,874 1077,875 1078,876 1078,878 1079,879 1079,880 1080,881 1080,882 1081,883 1081,884 1082,885 1082,886 1083,887 1083,888 1084,889 1084,890 1086,892 1086,893 1089,896 1089,897 1090,898 1090,899 1095,904 1095,905 1104,914 1105,914 1110,919 1111,919 1113,921 1114,921 1116,923 1117,923 1119,925 1120,925 1121,926 1122,926 1123,927 1124,927 1126,929 1128,929 1129,930 1130,930 1131,931 1132,931 1133,932 1135,932 1136,933 1138,933 1139,934 1141,934 1142,935 1144,935 1145,936 1148,936 1149,937 1153,937 1154,938 1159,938 1160,939 1182,939 1183,938 1188,938 1189,937 1194,937 1195,936 1197,936 1198,935 1201,935 1202,934 1204,934 1205,933 1207,933 1208,932 1210,932 1211,931 1212,931 1213,930 1214,930 1215,929 1216,929 1217,928 1218,928 1219,927 1220,927 1221,926 1222,926 1224,924 1225,924 1227,922 1228,922 1231,919 1232,919 1234,917 1235,917 1240,912 1241,912 1241,911 1250,902 1250,901 1253,898 1253,897 1255,895 1255,894 1257,892 1257,891 1258,890 1258,889 1259,888 1259,887 1260,886 1260,885 1262,883 1262,882 1263,881 1263,879 1264,878 1264,877 1265,876 1265,874 1266,873 1266,872 1267,871 1267,868 1268,867 1268,865 1269,864 1269,860 1270,859 1270,856 1271,855 1271,846 1272,845 1272,831 1271,830 1271,822 1270,821 1270,817 1269,816 1269,813 1268,812 1268,809 1267,808 1267,806 1266,805 1266,803 1265,802 1265,801 1264,800 1264,798 1263,797 1263,796 1262,795 1262,794 1261,793 1261,792 1260,791 1260,790 1259,789 1259,788 1257,786 1257,785 1255,783 1255,782 1253,780 1253,779 1251,777 1251,776 1246,771 1246,770 1241,765 1240,765 1239,764 1239,763 1238,763 1233,758 1232,758 1230,756 1229,756 1227,754 1226,754 1224,752 1223,752 1222,751 1221,751 1220,750 1219,750 1217,748 1215,748 1214,747 1213,747 1212,746 1211,746 1210,745 1209,745 1208,744 1206,744 1205,743 1202,743 1201,742 1199,742 1198,741 1195,741 1194,740 1191,740 1190,739 1184,739 1183,738 Z" fill="white"/><path d="M 897,527 898,528 897,529 897,530 897,529 898,528 Z" fill="white"/><path d="M 1051,457 1052,457 1053,458 1052,459 1053,458 1054,458 1053,458 1052,457 Z" fill="white"/><path d="M 998,450 997,451 989,451 988,452 984,452 983,453 980,453 979,454 977,454 976,455 973,455 972,456 971,456 970,457 968,457 967,458 966,458 965,459 963,459 962,460 961,460 960,461 959,461 958,462 957,462 955,464 954,464 953,465 952,465 951,466 950,466 948,468 947,468 943,472 942,472 936,478 935,478 931,482 931,483 927,487 927,488 923,492 923,493 921,495 921,496 919,498 919,499 918,500 918,501 917,502 917,503 915,505 915,506 913,508 913,509 912,510 912,511 911,512 911,513 910,514 910,515 909,516 909,517 907,519 907,520 905,522 905,523 904,524 904,525 903,526 903,527 901,529 901,530 900,531 900,532 899,533 899,534 898,535 898,536 896,538 896,539 895,540 895,541 894,542 894,543 892,545 892,546 891,547 891,548 889,550 889,551 888,552 888,553 887,554 887,555 885,557 885,558 884,559 884,560 882,562 882,563 881,564 881,565 880,566 880,567 878,569 878,570 876,572 876,573 875,574 875,575 874,576 874,577 873,578 873,579 871,581 871,582 870,583 870,584 869,585 869,586 867,588 867,589 866,590 866,591 864,593 864,594 863,595 863,596 861,598 861,600 859,602 859,603 858,604 858,605 857,606 857,607 855,609 855,610 853,612 853,613 852,614 852,615 851,616 851,617 850,618 850,619 848,621 848,622 847,623 847,624 846,625 846,626 844,628 844,629 843,630 843,631 841,633 841,634 840,635 840,636 838,638 838,639 837,640 837,641 836,642 836,643 835,644 835,645 833,647 833,648 832,649 832,650 830,652 830,653 829,654 829,655 828,656 828,657 827,658 827,659 825,661 825,662 824,663 824,664 822,666 822,667 821,668 821,669 820,670 820,671 818,673 818,674 817,675 817,676 815,678 815,679 814,680 814,681 813,682 813,683 812,684 812,685 810,687 810,688 809,689 809,690 807,692 807,693 805,695 805,696 804,697 804,698 803,699 803,700 801,702 801,703 800,704 800,705 799,706 799,707 798,708 798,709 797,710 797,711 795,713 795,714 793,716 793,717 792,718 792,719 790,721 790,722 789,723 789,724 788,725 788,726 787,727 787,728 785,730 785,731 784,732 784,733 782,735 782,736 781,737 781,738 780,739 780,740 778,742 778,743 777,744 777,745 776,746 776,747 774,749 774,750 773,751 773,752 772,753 772,754 770,756 770,757 769,758 769,759 767,761 767,762 766,763 766,764 764,766 764,768 762,770 762,771 761,772 761,773 760,774 760,775 758,777 758,778 756,780 756,781 755,782 755,783 753,785 753,786 752,787 752,788 751,789 751,790 749,792 749,793 748,794 748,795 747,796 747,797 746,798 746,799 744,801 744,802 743,803 743,804 741,806 741,807 740,808 740,809 739,810 739,811 738,812 738,813 737,814 737,815 735,817 735,818 733,820 733,821 732,822 732,823 731,824 731,825 730,826 730,827 728,829 728,830 727,831 727,832 725,834 725,835 724,836 724,837 723,838 723,839 721,841 721,842 720,843 720,844 718,846 718,847 717,848 717,849 716,850 716,851 715,852 715,853 713,855 713,856 712,857 712,858 710,860 710,861 709,862 709,863 707,865 707,866 706,867 706,868 704,870 704,872 701,875 701,876 700,877 700,878 699,879 699,880 698,881 698,882 697,883 697,884 695,886 695,887 694,888 694,889 692,891 692,892 691,893 691,894 689,896 689,897 688,898 688,899 686,901 686,902 685,903 685,904 684,905 684,906 682,908 682,909 681,910 681,911 680,912 680,913 679,914 679,915 678,916 678,917 676,919 676,920 675,921 675,922 673,924 673,925 672,926 672,927 670,929 670,930 669,931 669,932 667,934 667,935 666,936 666,937 665,938 665,939 663,941 663,942 662,943 662,944 661,945 661,946 659,948 659,949 658,950 658,951 656,953 656,954 655,955 655,956 654,957 654,958 652,960 652,961 651,962 651,963 650,964 650,965 649,966 649,967 647,969 646,968 647,969 647,970 646,971 646,972 644,974 644,976 642,978 642,979 641,980 641,981 640,982 640,983 638,985 638,986 636,988 636,989 635,990 635,991 633,993 633,994 632,995 632,996 630,998 630,1000 628,1002 628,1003 627,1004 627,1005 626,1006 626,1007 624,1009 624,1010 623,1011 623,1012 621,1014 621,1015 620,1016 620,1017 619,1018 619,1019 618,1020 618,1021 616,1023 616,1024 614,1026 614,1027 613,1028 613,1029 612,1030 612,1031 610,1033 609,1032 610,1033 610,1034 609,1035 609,1036 607,1038 607,1040 605,1042 605,1043 604,1044 604,1045 603,1046 602,1046 603,1047 601,1049 601,1050 599,1052 599,1053 598,1054 598,1055 597,1056 597,1057 595,1059 595,1060 593,1062 593,1064 590,1067 590,1069 589,1070 589,1071 587,1073 587,1074 585,1076 585,1077 584,1078 584,1079 582,1081 582,1082 581,1083 581,1084 580,1085 580,1086 579,1087 579,1088 578,1089 578,1090 576,1092 576,1093 574,1095 574,1096 573,1097 573,1098 571,1100 571,1101 570,1102 570,1103 569,1104 569,1105 568,1106 568,1107 566,1109 566,1110 565,1111 565,1112 564,1113 564,1114 562,1116 562,1117 561,1118 561,1119 559,1121 559,1122 558,1123 558,1124 557,1125 557,1126 556,1127 556,1128 553,1131 553,1133 552,1134 552,1135 550,1137 550,1138 548,1140 548,1141 547,1142 547,1143 546,1144 546,1145 545,1146 545,1147 543,1149 543,1150 542,1151 542,1152 541,1153 541,1154 539,1156 539,1157 538,1158 538,1159 536,1161 536,1162 534,1164 534,1165 533,1166 533,1167 532,1168 532,1169 530,1171 530,1173 528,1175 528,1176 527,1177 526,1176 527,1177 527,1178 525,1180 525,1181 524,1182 524,1183 522,1185 522,1186 521,1187 521,1188 520,1189 520,1190 519,1191 519,1192 518,1193 518,1194 516,1196 515,1195 516,1196 516,1197 515,1198 515,1199 513,1201 513,1202 512,1203 512,1204 510,1206 510,1207 509,1208 509,1209 508,1210 508,1211 507,1212 507,1213 505,1215 505,1216 503,1218 503,1219 502,1220 502,1221 501,1222 501,1223 499,1225 499,1226 498,1227 498,1228 497,1229 497,1230 496,1231 496,1232 494,1234 494,1235 493,1236 493,1237 492,1238 492,1239 490,1241 490,1242 488,1244 488,1245 486,1247 486,1249 484,1251 484,1252 482,1254 482,1255 481,1256 481,1257 480,1258 480,1259 478,1261 478,1263 476,1265 475,1264 476,1265 476,1266 475,1267 475,1268 473,1270 473,1271 472,1272 472,1273 470,1275 470,1276 469,1277 469,1278 468,1279 468,1280 467,1281 467,1282 465,1284 465,1285 464,1286 464,1287 462,1289 462,1290 461,1291 461,1292 460,1293 460,1294 459,1295 459,1296 457,1298 457,1299 455,1301 455,1302 454,1303 454,1304 453,1305 453,1306 451,1308 451,1309 450,1310 450,1311 448,1313 448,1314 447,1315 447,1316 445,1318 445,1320 443,1322 443,1323 442,1324 442,1325 441,1326 441,1327 439,1329 438,1328 439,1329 439,1330 438,1331 438,1332 436,1334 436,1335 435,1336 435,1337 433,1339 433,1340 432,1341 432,1343 430,1345 430,1346 428,1348 428,1349 427,1350 427,1351 425,1353 425,1354 424,1355 424,1356 422,1358 422,1360 421,1361 421,1362 419,1364 419,1365 418,1366 418,1367 416,1369 416,1370 414,1372 414,1373 413,1374 413,1376 412,1377 412,1378 410,1380 410,1381 409,1382 409,1384 408,1385 408,1386 407,1387 407,1388 406,1389 406,1390 405,1391 405,1393 404,1394 404,1396 403,1397 403,1399 402,1400 402,1403 401,1404 401,1405 400,1406 400,1410 399,1411 399,1413 398,1414 398,1420 397,1421 397,1423 396,1424 396,1437 395,1438 395,1453 396,1454 396,1467 397,1468 397,1472 398,1473 398,1477 399,1478 399,1481 400,1482 400,1486 401,1487 401,1488 402,1489 402,1492 403,1493 403,1494 404,1495 404,1498 405,1499 405,1500 406,1501 406,1503 407,1504 407,1505 408,1506 408,1508 409,1509 409,1510 410,1511 410,1513 413,1516 413,1517 414,1518 414,1520 416,1522 416,1523 418,1525 418,1526 419,1527 419,1528 421,1530 421,1531 424,1534 424,1535 426,1537 426,1538 428,1540 428,1541 438,1551 438,1552 440,1554 441,1554 445,1558 445,1559 446,1560 447,1560 450,1563 451,1563 454,1566 455,1566 459,1570 460,1570 462,1572 463,1572 464,1573 463,1574 464,1573 465,1574 466,1574 467,1575 468,1575 470,1577 471,1577 472,1578 473,1578 474,1579 475,1579 476,1580 477,1580 478,1581 479,1581 481,1583 483,1583 484,1584 485,1584 486,1585 488,1585 489,1586 491,1586 493,1588 495,1588 496,1589 499,1589 500,1590 503,1590 504,1591 506,1591 507,1592 511,1592 512,1593 514,1593 515,1594 520,1594 521,1595 527,1595 528,1596 543,1596 544,1597 1071,1597 1072,1596 1080,1596 1081,1597 1082,1596 1083,1597 1084,1596 1085,1597 1086,1596 1111,1596 1112,1597 1143,1597 1144,1596 1191,1596 1192,1597 1199,1597 1200,1596 1213,1596 1214,1595 1218,1595 1219,1594 1222,1594 1223,1593 1226,1593 1227,1592 1229,1592 1230,1591 1232,1591 1233,1590 1235,1590 1236,1589 1237,1589 1238,1588 1240,1588 1241,1587 1242,1587 1243,1586 1244,1586 1245,1585 1246,1585 1248,1583 1249,1583 1250,1582 1251,1582 1252,1581 1253,1581 1256,1578 1257,1578 1260,1575 1261,1575 1264,1572 1265,1572 1274,1563 1274,1562 1278,1558 1278,1557 1280,1555 1280,1554 1283,1551 1283,1550 1284,1549 1284,1548 1285,1547 1285,1546 1287,1544 1287,1543 1288,1542 1289,1543 1288,1542 1288,1541 1289,1540 1289,1539 1290,1538 1290,1537 1291,1536 1291,1534 1292,1533 1292,1532 1293,1531 1293,1528 1294,1527 1294,1526 1295,1525 1295,1522 1296,1521 1296,1518 1297,1517 1297,1513 1298,1512 1298,1504 1299,1503 1299,1488 1298,1487 1298,1480 1297,1479 1297,1474 1296,1473 1296,1471 1295,1470 1295,1466 1294,1465 1294,1463 1293,1462 1293,1461 1292,1460 1292,1458 1291,1457 1291,1456 1290,1455 1290,1454 1289,1453 1289,1451 1290,1450 1289,1451 1288,1450 1288,1449 1286,1447 1286,1446 1285,1445 1285,1444 1283,1442 1283,1441 1281,1439 1281,1438 1280,1437 1280,1436 1278,1434 1278,1433 1277,1432 1276,1432 1275,1431 1275,1430 1263,1418 1264,1417 1263,1416 1262,1417 1261,1417 1259,1415 1258,1415 1255,1412 1254,1412 1253,1411 1252,1411 1250,1409 1249,1409 1248,1408 1247,1408 1246,1407 1245,1407 1244,1406 1243,1406 1241,1404 1239,1404 1238,1403 1237,1403 1236,1402 1234,1402 1233,1401 1231,1401 1230,1400 1228,1400 1227,1399 1225,1399 1224,1398 1221,1398 1220,1397 1216,1397 1215,1396 1208,1396 1207,1395 674,1395 673,1394 669,1394 668,1393 667,1393 666,1392 665,1392 663,1390 662,1390 661,1389 661,1388 662,1387 661,1388 660,1388 659,1387 659,1386 660,1385 659,1386 656,1383 656,1382 655,1381 655,1380 654,1379 654,1378 653,1377 653,1364 654,1363 654,1362 655,1361 655,1359 657,1357 657,1356 658,1355 658,1354 659,1353 659,1352 661,1350 661,1349 662,1348 662,1347 664,1345 664,1343 666,1341 666,1340 667,1339 667,1338 668,1337 668,1336 670,1334 670,1333 672,1331 672,1330 673,1329 673,1328 674,1327 674,1326 675,1325 675,1324 678,1321 678,1319 680,1317 680,1316 681,1315 681,1314 682,1313 682,1312 684,1310 684,1309 685,1308 685,1307 687,1305 687,1304 688,1303 688,1302 690,1300 690,1299 691,1298 691,1297 692,1296 692,1295 693,1294 693,1293 694,1292 694,1291 696,1289 696,1288 698,1286 698,1285 699,1284 699,1283 701,1281 701,1279 703,1277 703,1276 705,1274 705,1273 706,1272 706,1271 707,1270 707,1269 709,1267 709,1266 710,1265 710,1264 711,1263 711,1262 713,1260 713,1259 714,1258 714,1257 715,1256 715,1255 716,1254 716,1253 717,1252 718,1252 718,1250 719,1249 719,1248 721,1246 721,1245 723,1243 723,1242 724,1241 724,1240 725,1239 725,1238 726,1237 726,1236 728,1234 728,1233 729,1232 729,1231 730,1230 730,1229 732,1227 732,1226 733,1225 733,1224 734,1223 735,1224 734,1223 735,1222 735,1221 736,1220 736,1219 737,1218 737,1217 739,1215 739,1214 740,1213 740,1212 741,1211 741,1210 742,1209 742,1208 744,1206 745,1207 744,1206 744,1205 746,1203 746,1202 747,1201 747,1200 748,1199 748,1198 749,1197 749,1196 751,1194 751,1193 752,1192 752,1191 753,1190 753,1189 755,1187 755,1186 756,1185 756,1184 758,1182 758,1181 759,1180 759,1179 761,1177 761,1175 763,1173 763,1172 764,1171 764,1170 765,1169 765,1168 767,1166 767,1165 768,1164 768,1163 770,1161 770,1160 771,1159 771,1158 772,1157 772,1156 773,1155 773,1154 775,1152 775,1151 777,1149 777,1148 778,1147 778,1146 779,1145 779,1144 781,1142 781,1141 782,1140 782,1139 784,1137 784,1135 786,1133 786,1132 787,1131 788,1132 787,1131 787,1130 788,1129 789,1129 789,1127 790,1126 790,1125 792,1123 792,1122 793,1121 793,1120 794,1119 794,1118 795,1117 795,1116 798,1113 798,1111 800,1109 800,1108 801,1107 801,1106 802,1105 802,1104 804,1102 804,1101 806,1099 806,1098 807,1097 807,1096 808,1095 808,1094 809,1093 809,1092 811,1090 811,1089 812,1088 812,1087 813,1086 813,1085 815,1083 815,1082 817,1080 817,1079 818,1078 818,1077 819,1076 819,1075 820,1074 820,1073 821,1072 821,1071 823,1069 823,1068 824,1067 824,1066 826,1064 826,1063 827,1062 827,1061 829,1059 829,1058 830,1057 830,1056 831,1055 831,1054 833,1052 833,1051 834,1050 834,1049 835,1048 835,1047 836,1046 836,1045 838,1043 838,1042 839,1041 839,1040 841,1038 841,1037 842,1036 842,1035 844,1033 844,1032 845,1031 845,1030 846,1029 846,1028 847,1027 847,1026 849,1024 849,1023 850,1022 850,1021 852,1019 852,1018 853,1017 853,1016 855,1014 855,1013 856,1012 856,1011 857,1010 857,1009 858,1008 858,1007 860,1005 860,1004 861,1003 861,1002 863,1000 863,999 864,998 865,999 864,998 864,997 865,996 865,995 867,993 867,992 868,991 868,990 869,989 869,988 871,986 871,985 872,984 872,983 873,982 873,981 875,979 875,978 876,977 876,976 878,974 878,973 879,972 879,971 881,969 881,968 882,967 882,966 883,965 883,964 884,963 884,962 886,960 886,959 887,958 887,957 889,955 889,954 890,953 890,952 891,951 891,950 892,949 892,948 894,946 894,945 895,944 895,943 897,941 897,940 898,939 898,938 899,937 899,936 901,934 901,933 902,932 902,931 905,928 904,927 906,925 906,924 907,923 907,922 908,921 909,921 909,919 910,918 910,917 913,914 913,912 915,910 916,911 915,910 915,908 917,906 917,905 918,904 918,903 920,901 920,900 921,899 921,898 922,897 922,896 924,894 924,893 926,891 926,890 927,889 927,888 928,887 928,886 929,885 929,884 930,883 930,882 932,880 932,879 933,878 933,877 935,875 935,874 936,873 936,872 938,870 938,869 939,868 939,867 941,865 941,863 943,861 943,860 944,859 944,858 946,856 946,855 947,854 947,853 949,851 949,850 950,849 950,848 951,847 951,846 952,845 952,844 954,842 954,841 955,840 955,839 956,838 956,837 958,835 958,834 959,833 959,832 961,830 961,829 963,827 963,826 964,825 964,824 965,823 965,822 966,821 966,820 968,818 968,817 969,816 969,815 970,814 970,813 972,811 972,810 973,809 973,808 975,806 975,805 976,804 976,803 978,801 978,799 980,797 980,796 981,795 981,794 983,792 983,791 984,790 984,789 985,788 985,787 987,785 987,784 988,783 988,782 989,781 989,780 991,778 991,777 992,776 992,775 993,774 993,773 995,771 995,770 996,769 996,768 998,766 998,765 999,764 999,763 1001,761 1001,760 1002,759 1002,758 1003,757 1003,756 1004,755 1004,754 1005,753 1005,752 1007,750 1007,749 1009,747 1009,746 1010,745 1010,744 1011,743 1011,742 1013,740 1013,739 1014,738 1014,737 1015,736 1015,735 1017,733 1017,732 1018,731 1018,730 1019,729 1019,728 1021,726 1021,725 1022,724 1022,723 1024,721 1024,719 1026,717 1026,716 1028,714 1028,713 1029,712 1029,711 1030,710 1030,709 1033,706 1033,704 1035,702 1035,701 1036,700 1036,699 1038,697 1038,696 1039,695 1039,694 1040,693 1040,692 1041,691 1041,690 1042,689 1042,688 1044,686 1044,685 1046,683 1046,682 1047,681 1047,680 1049,678 1049,676 1051,674 1051,673 1052,672 1052,671 1054,669 1054,668 1055,667 1055,666 1056,665 1056,664 1058,662 1058,661 1059,660 1059,659 1060,658 1060,657 1062,655 1062,654 1063,653 1063,652 1065,650 1065,649 1066,648 1066,647 1067,646 1067,645 1069,643 1069,642 1070,641 1070,640 1072,638 1072,636 1074,634 1074,633 1075,632 1075,631 1077,629 1077,628 1078,627 1078,626 1079,625 1079,624 1081,622 1081,621 1083,619 1083,618 1084,617 1084,616 1085,615 1085,614 1087,612 1087,611 1089,609 1089,607 1091,605 1091,604 1092,603 1092,602 1093,601 1093,600 1094,599 1094,598 1096,596 1096,594 1097,593 1097,592 1098,591 1098,590 1099,589 1099,587 1100,586 1100,584 1101,583 1101,582 1102,581 1102,578 1103,577 1103,574 1104,573 1104,569 1105,568 1105,562 1106,561 1106,542 1105,541 1105,534 1104,533 1104,529 1103,528 1103,525 1102,524 1102,522 1101,521 1101,518 1100,517 1100,516 1099,515 1099,513 1098,512 1098,510 1097,509 1097,508 1096,507 1096,506 1094,504 1094,502 1092,500 1092,499 1090,497 1090,496 1089,495 1089,494 1087,492 1087,491 1082,486 1082,485 1070,473 1071,472 1070,473 1069,473 1065,469 1064,469 1063,468 1062,468 1060,466 1059,466 1057,464 1056,464 1055,463 1054,463 1053,462 1052,462 1051,461 1050,461 1049,460 1048,460 1047,459 1046,459 1045,458 1044,458 1043,457 1041,457 1040,456 1039,456 1038,455 1035,455 1034,454 1031,454 1030,453 1027,453 1026,452 1022,452 1021,451 1013,451 1012,450 Z" fill="white"/>
</svg>